<svg width="40" height="40" viewBox="0 0 40 40" fill="none" xmlns="http://www.w3.org/2000/svg">
<path fill-rule="evenodd" clip-rule="evenodd" d="M20 40C33.8071 40 40 33.8071 40 20C40 6.19288 33.8071 0 20 0C6.19288 0 0 6.19288 0 20C0 33.8071 6.19288 40 20 40ZM16.2428 8.48069H21.8067V17.6495H18.357V11.4323H15.2667L16.2428 8.48069ZM19.9997 31.5193C23.5042 31.5193 26.3451 28.6784 26.3451 25.1739C26.3451 21.6695 23.5042 18.8285 19.9997 18.8285C16.4953 18.8285 13.6544 21.6695 13.6544 25.1739C13.6544 28.6784 16.4953 31.5193 19.9997 31.5193ZM19.9997 28.6385C21.9132 28.6385 23.4644 27.0874 23.4644 25.1739C23.4644 23.2604 21.9132 21.7092 19.9997 21.7092C18.0863 21.7092 16.5351 23.2604 16.5351 25.1739C16.5351 27.0874 18.0863 28.6385 19.9997 28.6385Z" fill="black"/>
</svg>
